<svg width="17" height="17" viewBox="0 0 17 17" fill="none" xmlns="http://www.w3.org/2000/svg">
<path d="M15.909 7.41444H3.72273L9.04672 2.09046C9.4722 1.66497 9.4722 0.966747 9.04672 0.541264C8.84289 0.336975 8.56616 0.222168 8.27758 0.222168C7.98899 0.222168 7.71226 0.336975 7.50843 0.541264L0.318868 7.73083C-0.106615 8.15631 -0.106615 8.84363 0.318868 9.26911L7.50843 16.4587C7.93392 16.8842 8.62123 16.8842 9.04672 16.4587C9.4722 16.0332 9.4722 15.3459 9.04672 14.9204L3.72273 9.59641H15.909C16.509 9.59641 17 9.10546 17 8.50543C17 7.90539 16.509 7.41444 15.909 7.41444Z" fill="white"/>
</svg>
