<svg width="17" height="17" viewBox="0 0 17 17" fill="none" xmlns="http://www.w3.org/2000/svg">
<path d="M1.09097 9.37054H13.2771L7.95315 14.6924C7.52768 15.1177 7.52768 15.8157 7.95315 16.241C8.37863 16.6663 9.06594 16.6663 9.49142 16.241L16.6809 9.05428C17.1064 8.62897 17.1064 7.94192 16.6809 7.51661L9.50233 0.31897C9.2985 0.114762 9.02177 0 8.73319 0C8.44461 0 8.16789 0.114762 7.96406 0.31897C7.53859 0.744285 7.53859 1.43133 7.96406 1.85665L13.2771 7.18944H1.09097C0.490935 7.18944 0 7.68019 0 8.27999C0 8.8798 0.490935 9.37054 1.09097 9.37054Z" fill="white"/>
</svg>
